<svg id="visual" viewBox="0 0 900 600" width="900" height="600" xmlns="http://www.w3.org/2000/svg" xmlns:xlink="http://www.w3.org/1999/xlink" version="1.1"><path d="M0 73L25 86C50 99 100 125 150 119C200 113 250 75 300 75C350 75 400 113 450 117C500 121 550 91 600 90C650 89 700 117 750 127C800 137 850 129 875 125L900 121L900 0L875 0C850 0 800 0 750 0C700 0 650 0 600 0C550 0 500 0 450 0C400 0 350 0 300 0C250 0 200 0 150 0C100 0 50 0 25 0L0 0Z" fill="#ffeca0"></path><path d="M0 157L25 170C50 183 100 209 150 207C200 205 250 175 300 174C350 173 400 201 450 196C500 191 550 153 600 149C650 145 700 175 750 185C800 195 850 185 875 180L900 175L900 119L875 123C850 127 800 135 750 125C700 115 650 87 600 88C550 89 500 119 450 115C400 111 350 73 300 73C250 73 200 111 150 117C100 123 50 97 25 84L0 71Z" fill="#ffe88a"></path><path d="M0 361L25 382C50 403 100 445 150 431C200 417 250 347 300 329C350 311 400 345 450 376C500 407 550 435 600 424C650 413 700 363 750 347C800 331 850 349 875 358L900 367L900 173L875 178C850 183 800 193 750 183C700 173 650 143 600 147C550 151 500 189 450 194C400 199 350 171 300 172C250 173 200 203 150 205C100 207 50 181 25 168L0 155Z" fill="#ffe374"></path><path d="M0 493L25 501C50 509 100 525 150 507C200 489 250 437 300 425C350 413 400 441 450 458C500 475 550 481 600 461C650 441 700 395 750 388C800 381 850 413 875 429L900 445L900 365L875 356C850 347 800 329 750 345C700 361 650 411 600 422C550 433 500 405 450 374C400 343 350 309 300 327C250 345 200 415 150 429C100 443 50 401 25 380L0 359Z" fill="#f3d564"></path><path d="M0 601L25 601C50 601 100 601 150 601C200 601 250 601 300 601C350 601 400 601 450 601C500 601 550 601 600 601C650 601 700 601 750 601C800 601 850 601 875 601L900 601L900 443L875 427C850 411 800 379 750 386C700 393 650 439 600 459C550 479 500 473 450 456C400 439 350 411 300 423C250 435 200 487 150 505C100 523 50 507 25 499L0 491Z" fill="#e8c854"></path></svg>